<svg width="36" height="36" viewBox="0 0 36 36" fill="none" xmlns="http://www.w3.org/2000/svg">
<path d="M30.001 18.4114C30.001 18.9809 29.5777 19.4516 29.0286 19.5261L28.876 19.5364L6.37598 19.5364C5.75466 19.5364 5.25098 19.0327 5.25098 18.4114C5.25098 17.8418 5.67421 17.3711 6.22332 17.2966L6.37598 17.2864L28.876 17.2864C29.4973 17.2864 30.001 17.7901 30.001 18.4114Z" fill="white"/>
<path d="M16.244 26.6508C16.6843 27.0892 16.6858 27.8015 16.2474 28.2418C15.8489 28.6421 15.2239 28.6797 14.7828 28.3539L14.6564 28.2452L5.58141 19.2092C5.17996 18.8095 5.14344 18.1823 5.47187 17.7412L5.58135 17.6149L14.6563 8.57737C15.0966 8.13894 15.8089 8.14042 16.2473 8.58067C16.6459 8.98089 16.6809 9.60596 16.3532 10.0457L16.244 10.1717L7.96999 18.4125L16.244 26.6508Z" fill="white"/>
</svg>
