<svg width="36" height="36" viewBox="0 0 36 36" fill="none" xmlns="http://www.w3.org/2000/svg">
<path d="M30.0002 18.4114C30.0002 18.9809 29.577 19.4516 29.0279 19.5261L28.8752 19.5364L6.37524 19.5364C5.75392 19.5364 5.25024 19.0327 5.25024 18.4114C5.25024 17.8418 5.67348 17.3711 6.22259 17.2966L6.37524 17.2864L28.8752 17.2864C29.4966 17.2864 30.0002 17.7901 30.0002 18.4114Z" fill="black"/>
<path d="M16.2437 26.6508C16.684 27.0892 16.6856 27.8015 16.2472 28.2418C15.8486 28.6421 15.2237 28.6797 14.7826 28.3539L14.6562 28.2452L5.58117 19.2092C5.17971 18.8095 5.14319 18.1823 5.47163 17.7412L5.5811 17.6149L14.6561 8.57737C15.0964 8.13894 15.8087 8.14042 16.2471 8.58067C16.6457 8.98089 16.6807 9.60596 16.353 10.0457L16.2438 10.1717L7.96975 18.4125L16.2437 26.6508Z" fill="black"/>
</svg>
