<svg width="53" height="50" viewBox="0 0 53 50" fill="none" xmlns="http://www.w3.org/2000/svg">
<path fill-rule="evenodd" clip-rule="evenodd" d="M29.6761 3.51107L34.6795 13.5066C35.1698 14.4879 36.1163 15.1683 37.2139 15.3258L48.4066 16.9369C51.172 17.3361 52.2724 20.6877 50.2711 22.608L42.1774 30.3852C41.3819 31.15 41.0199 32.2493 41.208 33.329L43.1182 44.3086C43.5886 47.0247 40.6977 49.0969 38.226 47.812L28.2221 42.6244C27.2414 42.1155 26.0669 42.1155 25.0833 42.6244L15.0794 47.812C12.6077 49.0969 9.71688 47.0247 10.1901 44.3086L12.0974 33.329C12.2856 32.2493 11.9235 31.15 11.1281 30.3852L3.03434 22.608C1.03301 20.6877 2.13346 17.3361 4.89884 16.9369L16.0915 15.3258C17.1891 15.1683 18.1385 14.4879 18.6288 13.5066L23.6293 3.51107C24.8666 1.0396 28.4388 1.0396 29.6761 3.51107Z" stroke="#07BDBD" stroke-width="2.56682" stroke-linecap="round" stroke-linejoin="round"/>
</svg>
