<svg width="34" height="38" viewBox="0 0 34 38" fill="none" xmlns="http://www.w3.org/2000/svg">
<path d="M33.8374 33.9024V7.78109C33.8374 5.72311 32.1638 4.04948 30.1058 4.04948H26.3742V0.317871H22.6426V4.04948H11.4478V0.317871H7.71615V4.04948H3.98454C1.92656 4.04948 0.25293 5.72311 0.25293 7.78109V33.9024C0.25293 35.9604 1.92656 37.634 3.98454 37.634H30.1058C32.1638 37.634 33.8374 35.9604 33.8374 33.9024ZM11.4478 30.1708H7.71615V26.4392H11.4478V30.1708ZM11.4478 22.7075H7.71615V18.9759H11.4478V22.7075ZM18.911 30.1708H15.1794V26.4392H18.911V30.1708ZM18.911 22.7075H15.1794V18.9759H18.911V22.7075ZM26.3742 30.1708H22.6426V26.4392H26.3742V30.1708ZM26.3742 22.7075H22.6426V18.9759H26.3742V22.7075ZM30.1058 13.3785H3.98454V9.6469H30.1058V13.3785Z" fill="" fill-opacity="0.29"/>
</svg>
