  <svg width="34" height="38" viewBox="0 0 34 38" fill="none" xmlns="http://www.w3.org/2000/svg">
<path d="M33.8374 33.9023V7.78097C33.8374 5.72299 32.1638 4.04936 30.1058 4.04936H26.3742V0.317749H22.6426V4.04936H11.4478V0.317749H7.71615V4.04936H3.98454C1.92656 4.04936 0.25293 5.72299 0.25293 7.78097V33.9023C0.25293 35.9602 1.92656 37.6339 3.98454 37.6339H30.1058C32.1638 37.6339 33.8374 35.9602 33.8374 33.9023ZM11.4478 30.1706H7.71615V26.439H11.4478V30.1706ZM11.4478 22.7074H7.71615V18.9758H11.4478V22.7074ZM18.911 30.1706H15.1794V26.439H18.911V30.1706ZM18.911 22.7074H15.1794V18.9758H18.911V22.7074ZM26.3742 30.1706H22.6426V26.439H26.3742V30.1706ZM26.3742 22.7074H22.6426V18.9758H26.3742V22.7074ZM30.1058 13.3784H3.98454V9.64678H30.1058V13.3784Z" fill=""/>
</svg>
