<svg width="34" height="34" viewBox="0 0 34 34" fill="none" xmlns="http://www.w3.org/2000/svg">
<g clip-path="url(#clip0_148_73)">
<path d="M17.043 0.0509491C7.81922 0.0509491 0.342346 7.52782 0.342346 16.7516C0.342346 25.9753 7.81922 33.4522 17.043 33.4522C26.2667 33.4522 33.7436 25.9753 33.7436 16.7516C33.7436 7.52782 26.2667 0.0509491 17.043 0.0509491Z" fill="url(#paint0_linear_148_73)"/>
<path d="M19.4486 23.5123H23.9808L24.6927 18.9083H19.4486V16.3917C19.4486 14.4794 20.0738 12.7833 21.8627 12.7833H24.7374V8.76589C24.2321 8.69759 23.1639 8.54874 21.1455 8.54874C16.9303 8.54874 14.4593 10.7746 14.4593 15.8462V18.9091H10.1258V23.5132H14.4584V36.1677C15.3165 36.2956 16.186 36.3831 17.0783 36.3831C17.8847 36.3831 18.6719 36.3096 19.4486 36.2045V23.5123Z" fill="white"/>
</g>
<defs>
<linearGradient id="paint0_linear_148_73" x1="5.34669" y1="5.05529" x2="30.917" y2="30.6256" gradientUnits="userSpaceOnUse">
<stop stop-color="#2AA4F4"/>
<stop offset="1" stop-color="#007AD9"/>
</linearGradient>
<clipPath id="clip0_148_73">
<rect width="33.4013" height="33.4013" fill="white" transform="translate(0.342346 0.0509491)"/>
</clipPath>
</defs>
</svg>
