<svg width="21" height="19" viewBox="0 0 21 19" fill="none" xmlns="http://www.w3.org/2000/svg">
<path d="M7.33761 6.10615L9.60193 1.54615C9.66784 1.41418 9.76921 1.30319 9.89468 1.22561C10.0201 1.14803 10.1647 1.10693 10.3122 1.10693C10.4598 1.10693 10.6044 1.14803 10.7298 1.22561C10.8553 1.30319 10.9567 1.41418 11.0226 1.54615L13.2869 6.10615L18.3489 6.84175C18.4949 6.86199 18.6323 6.92288 18.7453 7.01746C18.8584 7.11204 18.9426 7.23651 18.9883 7.37664C19.034 7.51678 19.0394 7.66695 19.0039 7.81001C18.9683 7.95306 18.8933 8.08324 18.7873 8.18569L15.125 11.7329L15.9896 16.7444C16.1003 17.3876 15.4205 17.8774 14.8391 17.5741L10.3122 15.207L5.7845 17.5741C5.20404 17.8783 4.52422 17.3876 4.63491 16.7435L5.4995 11.7321L1.8372 8.18482C1.73173 8.0823 1.65714 7.95225 1.6219 7.80945C1.58666 7.66665 1.59218 7.51683 1.63785 7.37701C1.68352 7.23719 1.76749 7.11299 1.88023 7.01853C1.99297 6.92406 2.12995 6.86311 2.2756 6.84262L7.33761 6.10615Z" fill="url(#paint0_radial_175_808)" stroke="url(#paint1_radial_175_808)" stroke-width="2.09174" stroke-linecap="round" stroke-linejoin="round"/>
<defs>
<radialGradient id="paint0_radial_175_808" cx="0" cy="0" r="1" gradientUnits="userSpaceOnUse" gradientTransform="translate(1.599 -1.58882) rotate(53.0386) scale(24.0981 24.4708)">
<stop offset="0.046875" stop-color="#FFFBDB"/>
<stop offset="0.983052" stop-color="#F28649"/>
</radialGradient>
<radialGradient id="paint1_radial_175_808" cx="0" cy="0" r="1" gradientUnits="userSpaceOnUse" gradientTransform="translate(1.599 -1.58882) rotate(53.0386) scale(24.0981 24.4708)">
<stop offset="0.046875" stop-color="#FDB54A"/>
<stop offset="0.983052" stop-color="#F28649"/>
</radialGradient>
</defs>
</svg>
