<svg width="33" height="34" viewBox="0 0 33 34" fill="none" xmlns="http://www.w3.org/2000/svg">
<g clip-path="url(#clip0_148_399)">
<path d="M32.6686 17.0641C32.6686 15.6956 32.5595 14.697 32.3234 13.6615H16.9723V19.8379H25.9831C25.8015 21.3728 24.8204 23.6844 22.6404 25.2377L22.6098 25.4445L27.4635 29.272L27.7998 29.3061C30.8882 26.4028 32.6686 22.131 32.6686 17.0641" fill="#4285F4"/>
<path d="M16.9723 33.3375C21.3868 33.3375 25.0929 31.8581 27.7999 29.3062L22.6404 25.2377C21.2597 26.2178 19.4066 26.902 16.9723 26.902C12.6486 26.902 8.97887 23.9988 7.67072 19.9859L7.47897 20.0025L2.43197 23.9784L2.36597 24.1652C5.05466 29.6019 10.5775 33.3375 16.9723 33.3375Z" fill="#34A853"/>
<path d="M7.67087 19.9859C7.3257 18.9503 7.12594 17.8407 7.12594 16.6942C7.12594 15.5476 7.3257 14.4381 7.65271 13.4025L7.64356 13.182L2.53332 9.1422L2.36612 9.22315C1.25798 11.4793 0.622131 14.0128 0.622131 16.6942C0.622131 19.3756 1.25798 21.909 2.36612 24.1651L7.67087 19.9859" fill="#FBBC05"/>
<path d="M16.9723 6.48633C20.0425 6.48633 22.1135 7.83628 23.2944 8.9644L27.9088 4.37823C25.0748 1.69682 21.3868 0.0509796 16.9723 0.0509796C10.5774 0.0509796 5.05466 3.78644 2.36597 9.2232L7.65255 13.4026C8.97886 9.38969 12.6486 6.48633 16.9723 6.48633" fill="#EB4335"/>
</g>
<defs>
<clipPath id="clip0_148_399">
<rect width="32.0652" height="33.4013" fill="white" transform="translate(0.620239 0.0509491)"/>
</clipPath>
</defs>
</svg>
