<svg width="18" height="16" viewBox="0 0 18 16" fill="none" xmlns="http://www.w3.org/2000/svg">
<path fill-rule="evenodd" clip-rule="evenodd" d="M7.16874 10.7106C7.68914 11.0633 8.32337 11.2766 8.99825 11.2766C10.7871 11.2766 12.2426 9.80809 12.2426 8.00316C12.2426 7.32221 12.0312 6.68228 11.6815 6.1572L10.7952 7.05147C10.9416 7.33041 11.0229 7.65858 11.0229 8.00316C11.0229 9.12714 10.1122 10.046 8.99825 10.046C8.65674 10.046 8.3315 9.96397 8.05504 9.81629L7.16874 10.7106ZM14.3567 3.45801C15.5357 4.54097 16.5358 6.00132 17.2839 7.75703C17.3489 7.91291 17.3489 8.09341 17.2839 8.24108C15.5438 12.3268 12.4459 14.7717 8.99825 14.7717H8.99012C7.42081 14.7717 5.91654 14.2548 4.59117 13.3113L3.01372 14.9029C2.89176 15.026 2.73726 15.0834 2.58277 15.0834C2.42828 15.0834 2.26566 15.026 2.15182 14.9029C1.94854 14.6978 1.91602 14.3696 2.07864 14.1317L2.10303 14.0989L14.129 1.96484C14.1453 1.94843 14.1615 1.93202 14.1697 1.91561L14.1697 1.91561C14.1859 1.8992 14.2022 1.8828 14.2103 1.86639L14.9746 1.09519C15.2186 0.857267 15.6007 0.857267 15.8366 1.09519C16.0805 1.33311 16.0805 1.72692 15.8366 1.96484L14.3567 3.45801ZM5.74799 8.00636C5.74799 8.21967 5.77238 8.43298 5.8049 8.62988L2.79638 11.6654C1.98326 10.7138 1.27585 9.56516 0.714803 8.24428C0.649753 8.0966 0.649753 7.91611 0.714803 7.76023C2.45487 3.67452 5.55284 1.23786 8.99232 1.23786H9.00045C10.1632 1.23786 11.2934 1.51681 12.3342 2.04188L9.61841 4.78209C9.42327 4.74928 9.21186 4.72466 9.00045 4.72466C7.20346 4.72466 5.74799 6.19322 5.74799 8.00636Z" fill="#9E9E9E"/>
</svg>
