<svg width="46" height="46" viewBox="0 0 46 46" fill="transparent" xmlns="http://www.w3.org/2000/svg">
<path d="M23.3097 9.44408C23.1795 9.31952 23.0063 9.25 22.8261 9.25C22.6459 9.25 22.4726 9.31952 22.3424 9.44408L6.24111 24.8256C6.17273 24.891 6.11833 24.9696 6.0812 25.0567C6.04407 25.1437 6.02498 25.2374 6.02508 25.332L6.02246 39.7681C6.02246 40.5104 6.31732 41.2222 6.84218 41.7471C7.36704 42.2719 8.07891 42.5668 8.82117 42.5668H17.226C17.5972 42.5668 17.9531 42.4194 18.2155 42.1569C18.478 41.8945 18.6254 41.5386 18.6254 41.1674V29.2729C18.6254 29.0874 18.6991 28.9094 18.8303 28.7782C18.9615 28.647 19.1395 28.5733 19.3251 28.5733H26.3218C26.5074 28.5733 26.6854 28.647 26.8166 28.7782C26.9478 28.9094 27.0215 29.0874 27.0215 29.2729V41.1674C27.0215 41.5386 27.169 41.8945 27.4314 42.1569C27.6938 42.4194 28.0497 42.5668 28.4209 42.5668H36.8222C37.5645 42.5668 38.2764 42.2719 38.8012 41.7471C39.3261 41.2222 39.621 40.5104 39.621 39.7681V25.332C39.6211 25.2374 39.602 25.1437 39.5648 25.0567C39.5277 24.9696 39.4733 24.891 39.4049 24.8256L23.3097 9.44408Z" fill=""/>
<path d="M43.369 21.9388L36.827 15.6802V6.18299C36.827 5.81185 36.6796 5.45592 36.4171 5.19349C36.1547 4.93106 35.7988 4.78363 35.4277 4.78363H31.2296C30.8585 4.78363 30.5025 4.93106 30.2401 5.19349C29.9777 5.45592 29.8302 5.81185 29.8302 6.18299V8.98169L24.7646 4.13818C24.2905 3.6589 23.5856 3.38428 22.8238 3.38428C22.0647 3.38428 21.3615 3.6589 20.8875 4.13905L2.28482 21.9371C1.74082 22.4619 1.6726 23.3251 2.16763 23.8936C2.29193 24.0371 2.44414 24.1538 2.61498 24.2366C2.78582 24.3194 2.97173 24.3665 3.16138 24.3752C3.35103 24.3839 3.54046 24.3539 3.71815 24.287C3.89583 24.2201 4.05805 24.1178 4.19494 23.9863L22.3428 6.64477C22.473 6.52021 22.6463 6.45069 22.8265 6.45069C23.0067 6.45069 23.1799 6.52021 23.3101 6.64477L41.4597 23.9863C41.7271 24.2427 42.0852 24.3826 42.4556 24.3754C42.8259 24.3682 43.1783 24.2144 43.4355 23.9478C43.9725 23.3915 43.9279 22.4732 43.369 21.9388Z" fill=""/>
</svg>
