<svg width="35" height="34" viewBox="0 0 35 34" fill="none" xmlns="http://www.w3.org/2000/svg">
<path d="M30.3601 0.183228H28.4943C26.4334 0.183228 24.7627 1.85393 24.7627 3.91484V30.0361C24.7627 32.097 26.4334 33.7677 28.4943 33.7677H30.3601C32.421 33.7677 34.0917 32.097 34.0917 30.0361V3.91484C34.0917 1.85393 32.421 0.183228 30.3601 0.183228Z" fill=""/>
<path d="M18.2322 11.3787H16.3664C14.3055 11.3787 12.6348 13.0494 12.6348 15.1103V30.0367C12.6348 32.0976 14.3055 33.7683 16.3664 33.7683H18.2322C20.2931 33.7683 21.9638 32.0976 21.9638 30.0367V15.1103C21.9638 13.0494 20.2931 11.3787 18.2322 11.3787Z" fill=""/>
<path d="M6.10474 24.4384H4.23894C2.17802 24.4384 0.507324 26.1091 0.507324 28.17V30.0358C0.507324 32.0967 2.17802 33.7674 4.23894 33.7674H6.10474C8.16565 33.7674 9.83635 32.0967 9.83635 30.0358V28.17C9.83635 26.1091 8.16565 24.4384 6.10474 24.4384Z" fill=""/>
</svg>
