<svg width="24" height="24" viewBox="0 0 24 24" fill="none" xmlns="http://www.w3.org/2000/svg">
<path d="M10.8122 8.47159H13.1943V6.0895H10.8122M12.0032 21.5731C6.75071 21.5731 2.47486 17.2972 2.47486 12.0447C2.47486 6.79222 6.75071 2.51637 12.0032 2.51637C17.2557 2.51637 21.5316 6.79222 21.5316 12.0447C21.5316 17.2972 17.2557 21.5731 12.0032 21.5731ZM12.0032 0.134277C10.4391 0.134277 8.89033 0.44235 7.44529 1.04091C6.00025 1.63946 4.68725 2.51678 3.58126 3.62277C1.34762 5.85641 0.0927734 8.88588 0.0927734 12.0447C0.0927734 15.2036 1.34762 18.233 3.58126 20.4667C4.68725 21.5727 6.00025 22.45 7.44529 23.0485C8.89033 23.6471 10.4391 23.9552 12.0032 23.9552C15.1621 23.9552 18.1915 22.7003 20.4252 20.4667C22.6588 18.233 23.9137 15.2036 23.9137 12.0447C23.9137 10.4806 23.6056 8.93184 23.007 7.48679C22.4085 6.04175 21.5312 4.72875 20.4252 3.62277C19.3192 2.51678 18.0062 1.63946 16.5612 1.04091C15.1161 0.44235 13.5673 0.134277 12.0032 0.134277ZM10.8122 18H13.1943V10.8537H10.8122V18Z" fill="white"/>
</svg>
