<svg width="20" height="20" viewBox="0 0 20 20" fill="none" xmlns="http://www.w3.org/2000/svg">
<path fill-rule="evenodd" clip-rule="evenodd" d="M14.6016 6.16342V7.4412C16.0369 7.88921 17.0827 9.18853 17.0827 10.7404V14.8545C17.0827 16.7757 15.4899 18.3334 13.5262 18.3334H6.47335C4.50881 18.3334 2.91602 16.7757 2.91602 14.8545V10.7404C2.91602 9.18853 3.96264 7.88921 5.39709 7.4412V6.16342C5.40556 3.67907 7.46324 1.66675 9.98665 1.66675C12.5439 1.66675 14.6016 3.67907 14.6016 6.16342ZM10.0036 3.11595C11.7226 3.11595 13.1197 4.48234 13.1197 6.16342V7.2615H6.87896V6.14686C6.88742 4.47406 8.28461 3.11595 10.0036 3.11595ZM10.7403 13.7125C10.7403 14.1183 10.41 14.4413 9.99511 14.4413C9.58866 14.4413 9.25841 14.1183 9.25841 13.7125V11.8741C9.25841 11.4766 9.58866 11.1536 9.99511 11.1536C10.41 11.1536 10.7403 11.4766 10.7403 11.8741V13.7125Z" fill="#9E9E9E"/>
</svg>
