<svg width="30" height="30" viewBox="0 0 30 30" fill="none" xmlns="http://www.w3.org/2000/svg">
<path d="M10.0958 15.1276C10.0958 14.6393 10.5007 14.2343 10.9891 14.2343H17.516V4.15809C17.5041 3.58639 17.0515 3.13379 16.4798 3.13379C9.46453 3.13379 4.56934 8.02898 4.56934 15.0442C4.56934 22.0595 9.46453 26.9547 16.4798 26.9547C17.0396 26.9547 17.5041 26.5021 17.5041 25.9304V16.009H10.9891C10.4888 16.0209 10.0958 15.6159 10.0958 15.1276Z" fill="white"/>
<path d="M25.1742 14.4968L21.7917 11.1023C21.4463 10.7569 20.8746 10.7569 20.5292 11.1023C20.1838 11.4477 20.1838 12.0194 20.5292 12.3648L22.3872 14.2229H17.5039V16.0094H22.3753L20.5172 17.8674C20.1718 18.2129 20.1718 18.7846 20.5172 19.13C20.6959 19.3086 20.9222 19.392 21.1485 19.392C21.3748 19.392 21.6011 19.3086 21.7798 19.13L25.1623 15.7355C25.5196 15.402 25.5196 14.8422 25.1742 14.4968Z" fill="white"/>
</svg>
