<svg width="36" height="36" viewBox="0 0 36 36" fill="none" xmlns="http://www.w3.org/2000/svg">
<path d="M25.7304 22.9555C24.0971 24.5888 22.0237 26.5384 19.5069 28.806C19.5065 28.8064 19.5061 28.8068 19.5056 28.8072L18 30.157L16.4944 28.8072C16.4939 28.8068 16.4935 28.8064 16.4931 28.806C13.9763 26.5384 11.9029 24.5888 10.2696 22.9555C8.6409 21.3268 7.3643 19.883 6.42785 18.6219L6.42764 18.6216C5.49046 17.3605 4.86859 16.2439 4.52532 15.2682C4.17525 14.2732 4.00095 13.2602 4 12.2246C4.0001 10.1238 4.69341 8.4209 6.06961 7.0447C7.4459 5.66841 9.14899 4.9751 11.25 4.9751C12.4038 4.9751 13.4965 5.21803 14.5386 5.70579C15.5821 6.19428 16.4798 6.88069 17.2381 7.77275L18 8.66914L18.7619 7.77275C19.5202 6.88069 20.4179 6.19427 21.4614 5.70579C22.5035 5.21803 23.5962 4.9751 24.75 4.9751C26.851 4.9751 28.5541 5.66841 29.9304 7.0447C31.3067 8.421 32 10.1241 32 12.2251C32 13.2605 31.8262 14.2733 31.4762 15.2682C31.133 16.2437 30.5108 17.3602 29.5727 18.6212L29.5721 18.6219C28.6357 19.883 27.3591 21.3268 25.7304 22.9555Z" stroke="black" stroke-width="2"/>
</svg>
