<svg width="28" height="28" viewBox="0 0 28 28" fill="none" xmlns="http://www.w3.org/2000/svg">
<path d="M14.0002 24.4999L12.3085 22.9832C10.3446 21.2138 8.721 19.6874 7.43766 18.4041C6.15433 17.1207 5.1335 15.9684 4.37516 14.9472C3.61683 13.9268 3.08716 12.9888 2.78616 12.1332C2.48516 11.2777 2.33427 10.4027 2.3335 9.50822C2.3335 7.68044 2.946 6.15405 4.171 4.92905C5.396 3.70405 6.92239 3.09155 8.75016 3.09155C9.76127 3.09155 10.7238 3.30544 11.6377 3.73322C12.5516 4.161 13.3391 4.76377 14.0002 5.54155C14.6613 4.76377 15.4488 4.161 16.3627 3.73322C17.2766 3.30544 18.2391 3.09155 19.2502 3.09155C21.0779 3.09155 22.6043 3.70405 23.8293 4.92905C25.0543 6.15405 25.6668 7.68044 25.6668 9.50822C25.6668 10.4027 25.5163 11.2777 25.2153 12.1332C24.9143 12.9888 24.3843 13.9268 23.6252 14.9472C22.8668 15.9684 21.846 17.1207 20.5627 18.4041C19.2793 19.6874 17.6557 21.2138 15.6918 22.9832L14.0002 24.4999Z" fill="#FF0000"/>
</svg>
