<svg width="38" height="38" viewBox="0 0 38 38" fill="none" xmlns="http://www.w3.org/2000/svg">
<path d="M18.9998 3.1665C16.9206 3.1665 14.8617 3.57605 12.9407 4.37174C11.0197 5.16744 9.27424 6.33372 7.80398 7.80398C4.83465 10.7733 3.1665 14.8006 3.1665 18.9998C3.1665 23.1991 4.83465 27.2264 7.80398 30.1957C9.27424 31.666 11.0197 32.8322 12.9407 33.6279C14.8617 34.4236 16.9206 34.8332 18.9998 34.8332C23.1991 34.8332 27.2264 33.165 30.1957 30.1957C33.165 27.2264 34.8332 23.1991 34.8332 18.9998C34.8332 16.9206 34.4236 14.8617 33.6279 12.9407C32.8322 11.0197 31.666 9.27424 30.1957 7.80398C28.7254 6.33372 26.98 5.16744 25.059 4.37174C23.138 3.57605 21.0791 3.1665 18.9998 3.1665ZM25.6498 25.6498L17.4165 20.5832V11.0832H19.7915V19.3165L26.9165 23.5915L25.6498 25.6498Z" fill="black"/>
</svg>
