<svg width="30" height="30" viewBox="0 0 30 30" fill="none" xmlns="http://www.w3.org/2000/svg">
<path d="M26.875 0.75H3.125C2.49511 0.75 1.89102 1.00022 1.44562 1.44562C1.00022 1.89102 0.75 2.49511 0.75 3.125V26.875C0.75 27.5049 1.00022 28.109 1.44562 28.5544C1.89102 28.9998 2.49511 29.25 3.125 29.25H26.875C27.5049 29.25 28.109 28.9998 28.5544 28.5544C28.9998 28.109 29.25 27.5049 29.25 26.875V3.125C29.25 2.49511 28.9998 1.89102 28.5544 1.44562C28.109 1.00022 27.5049 0.75 26.875 0.75ZM23.3125 16.1875H16.1875V23.3125C16.1875 23.6274 16.0624 23.9295 15.8397 24.1522C15.617 24.3749 15.3149 24.5 15 24.5C14.6851 24.5 14.383 24.3749 14.1603 24.1522C13.9376 23.9295 13.8125 23.6274 13.8125 23.3125V16.1875H6.6875C6.37256 16.1875 6.07051 16.0624 5.84781 15.8397C5.62511 15.617 5.5 15.3149 5.5 15C5.5 14.6851 5.62511 14.383 5.84781 14.1603C6.07051 13.9376 6.37256 13.8125 6.6875 13.8125H13.8125V6.6875C13.8125 6.37256 13.9376 6.07051 14.1603 5.84781C14.383 5.62511 14.6851 5.5 15 5.5C15.3149 5.5 15.617 5.62511 15.8397 5.84781C16.0624 6.07051 16.1875 6.37256 16.1875 6.6875V13.8125H23.3125C23.6274 13.8125 23.9295 13.9376 24.1522 14.1603C24.3749 14.383 24.5 14.6851 24.5 15C24.5 15.3149 24.3749 15.617 24.1522 15.8397C23.9295 16.0624 23.6274 16.1875 23.3125 16.1875Z" fill="black"/>
</svg>
