<svg width="24" height="23" viewBox="0 0 24 23" fill="none" xmlns="http://www.w3.org/2000/svg">
<path d="M8.77904 7.85575L11.4962 2.38375C11.5753 2.22539 11.697 2.09219 11.8475 1.9991C11.9981 1.906 12.1716 1.85669 12.3486 1.85669C12.5256 1.85669 12.6991 1.906 12.8497 1.9991C13.0002 2.09219 13.1219 2.22539 13.201 2.38375L15.9182 7.85575L21.9926 8.73846C22.1678 8.76276 22.3326 8.83583 22.4683 8.94932C22.604 9.06282 22.705 9.21218 22.7599 9.38034C22.8147 9.54851 22.8212 9.72871 22.7785 9.90038C22.7359 10.072 22.6458 10.2283 22.5187 10.3512L18.1239 14.6079L19.1614 20.6217C19.2942 21.3935 18.4785 21.9813 17.7809 21.6173L12.3486 18.7767L6.9153 21.6173C6.21875 21.9823 5.40297 21.3935 5.53579 20.6206L6.5733 14.6069L2.17855 10.3502C2.05198 10.2271 1.96247 10.0711 1.92018 9.89971C1.87789 9.72835 1.88452 9.54856 1.93932 9.38078C1.99412 9.213 2.09489 9.06396 2.23018 8.9506C2.36546 8.83724 2.52984 8.76411 2.70462 8.73951L8.77904 7.85575Z" fill="#FFFBDB" stroke="url(#paint0_radial_175_911)" stroke-width="2.09174" stroke-linecap="round" stroke-linejoin="round"/>
<defs>
<radialGradient id="paint0_radial_175_911" cx="0" cy="0" r="1" gradientUnits="userSpaceOnUse" gradientTransform="translate(1.8927 -1.37821) rotate(53.0386) scale(28.9177 29.365)">
<stop offset="0.046875" stop-color="#FDB54A"/>
<stop offset="0.983052" stop-color="#F28649"/>
</radialGradient>
</defs>
</svg>
