<svg width="38" height="38" viewBox="0 0 38 38" fill="none" xmlns="http://www.w3.org/2000/svg">
<g clip-path="url(#clip0_16_5726)">
<path d="M25.3333 3.1665C25.7211 3.16656 26.0954 3.30893 26.3853 3.56664C26.6751 3.82434 26.8602 4.17944 26.9056 4.56459L26.9167 4.74984V6.33317H28.5C29.7116 6.3331 30.8774 6.79602 31.7589 7.6272C32.6404 8.45839 33.171 9.59501 33.2421 10.8045L33.25 11.0832V30.0832C33.2501 31.2948 32.7872 32.4606 31.956 33.3421C31.1248 34.2236 29.9882 34.7542 28.7787 34.8253L28.5 34.8332H9.5C8.28842 34.8332 7.1226 34.3703 6.24109 33.5391C5.35957 32.708 4.829 31.5713 4.75792 30.3618L4.75 30.0832V11.0832C4.74993 9.87159 5.21285 8.70577 6.04403 7.82426C6.87522 6.94274 8.01184 6.41217 9.22133 6.34109L9.5 6.33317H11.0833V4.74984C11.0838 4.34628 11.2383 3.95812 11.5153 3.66467C11.7924 3.37122 12.171 3.19463 12.5739 3.17098C12.9767 3.14733 13.3734 3.27841 13.6829 3.53742C13.9924 3.79644 14.1913 4.16385 14.2389 4.56459L14.25 4.74984V6.33317H23.75V4.74984C23.75 4.32991 23.9168 3.92718 24.2137 3.63025C24.5107 3.33332 24.9134 3.1665 25.3333 3.1665ZM30.0833 14.2498H7.91667V29.4894C7.91667 30.6057 8.52783 31.5256 9.31475 31.6523L9.5 31.6665H28.5C29.3123 31.6665 29.982 30.8273 30.0723 29.7428L30.0833 29.4894V14.2498Z" fill="black"/>
<path d="M18.9999 19C19.3877 19.0001 19.762 19.1424 20.0518 19.4001C20.3416 19.6578 20.5268 20.0129 20.5721 20.3981L20.5832 20.5833V25.3333C20.5828 25.7369 20.4282 26.1251 20.1512 26.4185C19.8742 26.7119 19.4955 26.8885 19.0927 26.9122C18.6898 26.9358 18.2931 26.8048 17.9836 26.5457C17.6742 26.2867 17.4753 25.9193 17.4276 25.5186L17.4165 25.3333V22.1667C17.013 22.1662 16.6248 22.0117 16.3314 21.7347C16.0379 21.4576 15.8613 21.079 15.8377 20.6761C15.814 20.2733 15.9451 19.8766 16.2041 19.5671C16.4631 19.2576 16.8306 19.0587 17.2313 19.0111L17.4165 19H18.9999Z" fill="black"/>
</g>
<defs>
<clipPath id="clip0_16_5726">
<rect width="38" height="38" fill="white"/>
</clipPath>
</defs>
</svg>
