<svg width="46" height="46" viewBox="0 0 46 46" fill="none" xmlns="http://www.w3.org/2000/svg">
<path fill-rule="evenodd" clip-rule="evenodd" d="M15.7743 13.6463C15.7743 11.667 16.5606 9.76866 17.9603 8.36903C19.3599 6.96941 21.2582 6.18311 23.2376 6.18311C25.2169 6.18311 27.1152 6.96941 28.5149 8.36903C29.9145 9.76866 30.7008 11.667 30.7008 13.6463C30.7008 15.6257 29.9145 17.524 28.5149 18.9236C27.1152 20.3232 25.2169 21.1096 23.2376 21.1096C21.2582 21.1096 19.3599 20.3232 17.9603 18.9236C16.5606 17.524 15.7743 15.6257 15.7743 13.6463ZM15.7743 24.8412C13.3001 24.8412 10.9273 25.824 9.17772 27.5736C7.42819 29.3231 6.44531 31.696 6.44531 34.1702C6.44531 35.6547 7.03504 37.0784 8.08476 38.1282C9.13448 39.1779 10.5582 39.7676 12.0427 39.7676H34.4324C35.9169 39.7676 37.3407 39.1779 38.3904 38.1282C39.4401 37.0784 40.0298 35.6547 40.0298 34.1702C40.0298 31.696 39.0469 29.3231 37.2974 27.5736C35.5479 25.824 33.175 24.8412 30.7008 24.8412H15.7743Z" fill=""/>
</svg>
